<?xml version="1.0" encoding="UTF-8"?>
<svg width="648px" height="541px" viewBox="0 0 648 541" version="1.1" xmlns="http://www.w3.org/2000/svg" xmlns:xlink="http://www.w3.org/1999/xlink">
    <title>undraw_processing_thoughts_d8ha</title>
    <g id="Homepage-" stroke="none" stroke-width="1" fill="none" fill-rule="evenodd">
        <g id="Homepage-Design-" transform="translate(-169.000000, -1262.000000)" fill-rule="nonzero">
            <g id="undraw_processing_thoughts_d8ha" transform="translate(169.000000, 1262.000000)">
                <path d="M140.541425,337.46986 L151.64789,343.820872 C153.922588,345.121609 156.657672,345.358881 159.124239,344.469455 C161.590806,343.580029 163.53824,341.654274 164.447548,339.205409 L164.447548,339.205409 C165.428052,336.564794 165.090447,333.617766 163.537856,331.264508 C161.985265,328.91125 159.402118,327.431304 156.577451,327.276726 L143.12758,326.54071 L102.612193,314.337145 L96.0803334,290 L79,299.54736 L90.7442327,327.216268 L140.541425,337.46986 Z" id="Path" fill="#FFB8B8"></path>
                <path d="M88.6912893,210.239198 C86.078791,213.211596 86.5503611,216.78704 88.4530466,219.689635 C90.3557321,222.59223 93.5218609,225.007303 96.2928038,227.568416 C98.0728511,229.213666 99.7196478,230.959743 100.516978,232.939374 C101.413502,235.005301 101.042762,237.40486 99.5649463,239.101258 C97.7504501,241.255559 94.370587,242.714483 91.0728529,243.964982 C81.6425435,247.51588 71.9121068,250.205132 62,252 C70.3504448,242.207277 74.5304627,231.178827 73.9181215,220.555532 C73.7896081,218.326061 73.4596592,216.075942 74.2353877,213.84149 C75.3162197,211.120622 77.6329543,209.086046 80.4633936,208.372003 C83.7824621,207.415489 88.1543725,208.361572 88.6632709,210.544323" id="Path" fill="#2F2E41"></path>
                <polygon id="Path" fill="#FFB8B8" points="19 517.489601 30.7697561 518 54 411 33.8401567 411.863908"></polygon>
                <polygon id="Path" fill="#FFB8B8" points="135 494.974148 125.351413 500 65 411.377083 84.2201141 403"></polygon>
                <circle id="Oval" fill="#FFB8B8" cx="67" cy="226" r="19"></circle>
                <path d="M57.8301842,237 C57.8301842,237 51.2075404,250.626164 42.0377358,250.121509 C42.0377358,250.121509 24.7169789,243.056086 19.1132075,262.233654 L13,277.373836 L94,291 C94,291 89.4150943,263.242998 78.7169811,262.738323 C78.7169811,262.738323 66.490566,261.728979 68.0188679,257.186925 C69.5471698,252.64487 75.1509412,242.046743 75.1509412,242.046743 L57.8301842,237 Z" id="Path" fill="#FFB8B8"></path>
                <path d="M84.9758787,307.22556 L72.7233415,333.592072 L82.8210526,376.209209 L132,467.875903 C132,467.875903 109.35108,488.057556 103.705263,491.294401 C98.8079091,494.102138 58.0362105,417.991296 56.5473684,402.304108 C56.0560034,397.126799 47.1157895,502 47.1157895,502 C47.1157895,502 13.4116783,496.476045 4,494.639901 C4,494.639901 10.7807528,446.939096 14.7789474,402.304108 C17.8608438,367.898486 15.0584859,336.717753 32.3920707,321.929961 L30.8605036,292.521152 L71.7022989,291 L84.9758787,307.22556 Z" id="Path" fill="#2F2E41"></path>
                <path d="M21.7101751,537.917905 L39.8532248,540.610403 C42.7661742,541.719859 46.0272637,540.387567 47.3893724,537.531572 L47.3893724,537.531572 C48.4824763,535.239608 48.083973,532.496544 46.3864566,530.628086 L38.6856733,522.15181 L33.1432883,509.92857 C29.8285661,506.468237 27.5627469,507.692046 26.2959966,513.377315 L17.4359945,510.533541 L15.1129342,526.493809 C14.3964453,531.416369 17.1474192,536.180086 21.7101751,537.917905 L21.7101751,537.917905 Z" id="Path" fill="#2F2E41"></path>
                <path d="M128.461513,521.929973 L147.44852,521.864377 C150.597939,522.525497 153.739919,520.712253 154.709406,517.674102 L154.709406,517.674102 C155.487431,515.235959 154.670209,512.57534 152.652697,510.978106 L143.500262,503.732246 L136.00018,492.444439 C132.088664,489.512188 129.950065,491.06774 129.500108,496.897713 L120,495.413284 L120,511.593866 C120,516.584382 123.528352,520.894424 128.461513,521.929973 L128.461513,521.929973 Z" id="Path" fill="#2F2E41"></path>
                <path d="M57.9510615,198.321089 C54.7872084,196.931768 51.0222367,197.476543 47.9676625,199.094 C44.9130884,200.711456 42.4725233,203.290832 40.3364934,206.016492 C32.9815162,215.448186 28.692654,226.925105 28.0519267,238.889774 C27.8846066,242.160298 28.0416035,245.617108 29.7362613,248.414539 C31.5985702,251.488709 35.0072757,253.253434 38.3836738,254.45473 C49.7034884,258.417961 62.1227455,257.73152 72.9415841,252.544637 C67.2528898,247.91014 61.9892679,242.772444 57.2139507,237.19327 C56.3190592,236.147612 55.3833883,234.805204 55.8385089,233.50417 C56.1250565,232.871119 56.5693377,232.323072 57.1283854,231.913031 L68.0948692,222.344333 L67.8187566,226.215267 C72.2764434,225.953588 76.1514716,223.051461 77.6745003,218.833998 C77.1457186,219.906293 78.1552262,221.223293 79.3218253,221.464482 C80.4884243,221.705671 81.6694746,221.222437 82.7635273,220.74942 C85.4169346,219.602225 88.2991082,218.236126 89.4763277,215.585685 C90.2250799,213.697413 90.168854,211.582992 89.3208172,209.737585 C88.4693476,207.915236 87.2545491,206.287947 85.7516693,204.956518 C78.2555956,198.003273 67.7446097,195.377613 57.880515,197.994261" id="Path" fill="#2F2E41"></path>
                <path d="M54.1294965,334.139304 L62.2668297,343.827057 C63.9334276,345.811189 66.4036234,346.971766 69.0191051,347 C71.6345868,347.027218 74.1296078,345.919276 75.83924,343.970935 L75.83924,343.970935 C77.6827366,341.870036 78.4032827,339.032466 77.7807844,336.324975 C77.1582862,333.617485 75.2666892,331.361692 72.6837904,330.24664 L60.3851339,324.937231 L26.8473444,299.721918 L29.3023568,275 L10,277.936844 L11.2405066,307.529602 L54.1294965,334.139304 Z" id="Path" fill="#FFB8B8"></path>
                <path d="M105,312.402805 C105,312.402805 97.0635522,283.675553 92.8764372,283.682367 C88.6893223,283.68918 83.0825552,283.185437 83.0825552,283.185437 C83.0825552,283.185437 76.4563459,264.043016 42.3058575,270.087976 C8.15536913,276.132937 22.9369273,264.546753 13.2524454,269.080483 C3.56796348,273.614213 0,305.350324 0,305.350324 C0,305.350324 52.5,288.222897 63.7135914,297.794107 C70.1532995,303.360283 77.1563151,308.255707 84.6116478,312.402791 C84.6116478,312.402791 79.514585,324.996502 105,312.402805 Z" id="Path" fill="#2F2E41"></path>
                <rect id="Rectangle" fill="#3F3D56" x="82" y="519" width="205" height="1"></rect>
                <circle id="Oval" fill="#E6E6E6" cx="444.5" cy="164.5" r="124.5"></circle>
                <rect id="Rectangle" fill="#3F3D56" x="216" y="94" width="205" height="1"></rect>
                <rect id="Rectangle" fill="#3F3D56" x="215" y="132" width="404" height="1"></rect>
                <path d="M495,265 C426.074899,265 370,208.925101 370,140 C370,71.0748992 426.074899,15 495,15 C563.925101,15 620,71.0748992 620,140 C620,208.925101 563.925101,265 495,265 Z M495,16.344086 C426.81586,16.344086 371.344086,71.8158602 371.344086,140 C371.344086,208.18414 426.81586,263.655914 495,263.655914 C563.18414,263.655914 618.655914,208.18414 618.655914,140 C618.655914,71.8158602 563.184147,16.344086 495,16.344086 Z" id="Shape" fill="#3F3D56"></path>
                <circle id="Oval" fill="#6C63FF" cx="483" cy="16" r="16"></circle>
                <circle id="Oval" fill="#FF6584" cx="370" cy="130" r="11"></circle>
                <circle id="Oval" fill="#6C63FF" cx="624" cy="131" r="24"></circle>
                <path d="M283.033772,226 L209.633318,226 L209.633318,227.343685 L283.033772,227.343685 C290.558966,227.343685 296.65934,233.457826 296.65934,241 C296.65934,248.542174 290.558966,254.656315 283.033772,254.656315 L171.966228,254.656315 C164.441034,254.656315 158.34066,248.542174 158.34066,241 C158.34066,233.457826 164.441034,227.343685 171.966228,227.343685 L176.116843,227.343685 L176.116843,226 L171.966228,226 C163.700608,226 157,232.715729 157,241 C157,249.284271 163.700608,256 171.966228,256 L283.033772,256 C291.299392,256 298,249.284271 298,241 C298,232.715729 291.299392,226 283.033772,226 Z" id="Path" fill="#3F3D56"></path>
                <path d="M283.033772,272 L209.633318,272 L209.633318,273.343685 L283.033772,273.343685 C290.558966,273.343685 296.65934,279.457826 296.65934,287 C296.65934,294.542174 290.558966,300.656315 283.033772,300.656315 L171.966228,300.656315 C164.441034,300.656315 158.34066,294.542174 158.34066,287 C158.34066,279.457826 164.441034,273.343685 171.966228,273.343685 L176.116843,273.343685 L176.116843,272 L171.966228,272 C163.700608,272 157,278.715729 157,287 C157,295.284271 163.700608,302 171.966228,302 L283.033772,302 C291.299392,302 298,295.284271 298,287 C298,278.715729 291.299392,272 283.033772,272 Z" id="Path" fill="#3F3D56"></path>
                <path d="M283.033772,319 L209.633318,319 L209.633318,320.343685 L283.033772,320.343685 C290.558966,320.343685 296.65934,326.457826 296.65934,334 C296.65934,341.542174 290.558966,347.656315 283.033772,347.656315 L171.966228,347.656315 C164.441034,347.656315 158.34066,341.542174 158.34066,334 C158.34066,326.457826 164.441034,320.343685 171.966228,320.343685 L176.116843,320.343685 L176.116843,319 L171.966228,319 C163.700608,319 157,325.715729 157,334 C157,342.284271 163.700608,349 171.966228,349 L283.033772,349 C291.299392,349 298,342.284271 298,334 C298,325.715729 291.299392,319 283.033772,319 Z" id="Path" fill="#3F3D56"></path>
                <path d="M183.851154,222.000555 C181.713891,222.037028 180,223.816957 180,226.000096 C180,228.183236 181.713891,229.963164 183.851154,229.999638 L201.031234,229.999638 C203.189378,230.028999 204.964027,228.269622 204.999461,226.065563 C205.034895,223.861505 203.317756,222.043572 201.159833,222.000555 C201.116962,221.999815 201.074096,221.999815 201.031234,222.000555 L183.851154,222.000555 Z" id="be0e5baf-e5ec-4f16-9492-7d4921bb2c9b" fill="#6C63FF"></path>
                <path d="M183.851154,269.000555 C181.713891,269.037028 180,270.816957 180,273.000096 C180,275.183236 181.713891,276.963164 183.851154,276.999638 L201.031234,276.999638 C203.189378,277.028999 204.964027,275.269622 204.999461,273.065563 C205.034895,270.861505 203.317756,269.043572 201.159833,269.000555 C201.116962,268.999815 201.074096,268.999815 201.031234,269.000555 L183.851154,269.000555 Z" id="f5faaf73-4e1d-4e3d-a937-9f255bff3911" fill="#FF6584"></path>
                <path d="M183.850783,315.000555 C181.713882,315.036481 180,316.816545 180,319.000038 C180,321.183531 181.713882,322.963595 183.850783,322.99952 L201.024784,322.99952 C203.185167,323.033351 204.96399,321.272785 204.999461,319.065635 C205.034933,316.858485 203.313643,315.039204 201.153337,315.000555 C201.110481,314.999815 201.06763,314.999815 201.024784,315.000555 L183.850783,315.000555 Z" id="bdcbecaa-58f8-42a6-983f-c76dd899917c" fill="#3F3D56"></path>
                <path d="M177.923095,237.000562 C175.74597,237.036816 174,238.816728 174,240.999921 C174,243.183115 175.74597,244.963027 177.923095,244.999281 L277.935185,244.999281 C279.362562,245.026361 280.695568,244.286611 281.430606,243.0595 C282.165644,241.832389 282.190655,240.304994 281.496191,239.05435 C280.801727,237.803707 279.49366,237.020479 278.066166,237.000562 C278.022508,236.999813 277.978848,236.999813 277.935185,237.000562 L177.923095,237.000562 Z" id="bbcd49d7-9efc-41e7-bbf8-c6009cf796dd" fill="#E6E6E6"></path>
                <path d="M177.923095,283.000562 C175.74597,283.036816 174,284.816728 174,286.999921 C174,289.183115 175.74597,290.963027 177.923095,290.999281 L277.935185,290.999281 C279.362562,291.026361 280.695568,290.286611 281.430606,289.0595 C282.165644,287.832389 282.190655,286.304994 281.496191,285.05435 C280.801727,283.803707 279.49366,283.020479 278.066166,283.000562 C278.022508,282.999813 277.978848,282.999813 277.935185,283.000562 L177.923095,283.000562 Z" id="b24c44c6-9087-448d-956a-9230903e4c37" fill="#E6E6E6"></path>
                <path d="M177.923095,330.000558 C175.74597,330.036812 174,331.816725 174,333.99992 C174,336.183114 175.74597,337.963027 177.923095,337.999281 L277.935185,337.999281 C279.362562,338.026361 280.695568,337.286611 281.430606,336.059499 C282.165644,334.832387 282.190655,333.304992 281.496191,332.054348 C280.801727,330.803704 279.49366,330.020475 278.066166,330.000558 C278.022508,329.999814 277.978848,329.999814 277.935185,330.000558 L177.923095,330.000558 Z" id="f49c9183-be6f-4e21-8191-a3b3cb38d75e" fill="#E6E6E6"></path>
                <path d="M279.147219,478.611605 C278.107441,471.839881 276.078962,465.26144 273.128019,459.091094 L272.697838,458.192486 L269.502692,461.771208 L271.870148,456.440553 L271.71532,456.131169 C269.626203,451.95359 267.310883,447.895427 264.779881,443.97512 L264.310507,443.249041 L263.684371,443.950334 L264.122713,442.963005 L263.903217,442.630239 C260.768524,437.880564 258.360222,434.876626 258.336374,434.846399 L257.655337,434 L257.217323,435.009312 C257.136969,435.194301 249.177229,453.722651 248.122819,472.031669 L248.106162,472.317002 L253.463304,478.858454 L248,475.393855 L248.009472,476.651381 C248.026086,478.803201 248.171049,480.952055 248.443573,483.086258 C248.684181,484.922128 248.967369,486.714454 249.293138,488.463236 C249.80959,488.479408 250.311877,488.637676 250.745847,488.920977 C250.368457,486.966858 250.042978,484.958462 249.769409,482.895788 C249.558403,481.249111 249.425463,479.576248 249.372549,477.908245 L259.939844,484.610561 L249.475038,471.832312 C250.427835,456.352629 256.341562,440.756662 258.001846,436.640263 C258.892885,437.80771 260.573773,440.073926 262.584539,443.101225 L258.929163,451.333359 L264.140627,445.495997 C266.400036,449.048951 268.481258,452.714367 270.376419,456.478375 L264.747517,469.154267 L272.358146,460.629203 C275.016396,466.403774 276.856433,472.52772 277.824059,478.820665 C279.156076,488.984857 278.896076,498.74889 277.09174,506.31479 C275.363512,513.562339 272.317641,518.017057 268.734779,518.53757 C267.997385,518.640388 267.247159,518.595341 266.527014,518.405005 C265.949514,518.819464 265.254602,519.033699 264.546425,519.015604 L264.351139,519.015604 C265.462521,519.638794 266.708363,519.976819 267.979275,520 C268.29329,520 268.606898,519.977191 268.917696,519.93191 C273.129986,519.320697 276.494001,514.606074 278.389461,506.657915 C280.23426,498.920763 280.504422,488.96626 279.147219,478.611605 Z" id="Path" fill="#3F3D56"></path>
                <path d="M266.799442,519 C261.288753,519 253.34336,516.009869 245.462643,510.567055 C244.302666,509.759485 243.195041,508.881138 242.146256,507.937158 L241.263576,507.141936 L244.60089,506.19399 L240.157126,506.033531 L239.969616,505.839556 C231.640046,497.235197 226.456694,485.081363 226.405078,484.960188 L226,484 L227.053202,484.047044 C227.158066,484.051551 229.662029,484.168193 233.425328,484.694687 L233.659884,484.727556 L233.659884,484.725623 L234.485067,484.849352 C237.558123,485.310056 240.602438,485.941086 243.603552,486.739445 L243.924018,486.825158 L244.925284,489.25786 L244.77338,487.075838 L245.69196,487.337471 C250.045868,488.577059 254.181218,490.4681 257.95372,492.944612 C269.938455,501.222252 276.569965,511.567845 273.064416,516.505434 C271.866175,518.193178 269.66048,518.99934 266.799442,519 Z M243.956667,507.750277 C244.688748,508.361837 245.450553,508.943749 246.231961,509.486998 C257.20858,517.068657 268.994406,519.935712 271.968102,515.748875 C274.941169,511.561405 268.177686,501.617309 257.199435,494.034983 C253.812513,491.812575 250.122503,490.076311 246.24013,488.878291 L246.833701,497.402103 L242.934501,487.929031 C240.366506,487.256892 237.739381,486.703976 235.10932,486.281877 L235.540176,492.468355 L232.856538,485.948711 C230.77725,485.667096 229.101079,485.514371 228.08153,485.436391 C229.471529,488.447144 234.064588,497.744263 240.75065,504.734344 L253.014043,505.177058 L243.956667,507.750277 Z" id="Shape" fill="#3F3D56"></path>
            </g>
        </g>
    </g>
</svg>