<?xml version="1.0" encoding="UTF-8"?>
<svg width="50px" height="20" viewBox="0 0 50 52" version="1.1" xmlns="http://www.w3.org/2000/svg" xmlns:xlink="http://www.w3.org/1999/xlink">
    <title>Cart</title>
    <g id="Homepage-" stroke="none" stroke-width="1" fill="none" fill-rule="evenodd">
        <g id="Homepage-Design-" transform="translate(-1022.000000, -60.000000)" fill="#6C63FF" fill-rule="nonzero">
            <path d="M1038.5,101 C1041.53757,101 1044,103.462434 1044,106.5 C1044,109.537566 1041.53757,112 1038.5,112 C1035.46243,112 1033,109.537566 1033,106.5 C1033,103.462434 1035.46243,101 1038.5,101 Z M1062.5,101 C1065.53757,101 1068,103.462434 1068,106.5 C1068,109.537566 1065.53757,112 1062.5,112 C1059.46243,112 1057,109.537566 1057,106.5 C1057,103.462434 1059.46243,101 1062.5,101 Z M1027.39701,60 C1029.82581,60.0348171 1031.96654,61.6095753 1032.73205,63.9245546 L1032.73205,63.9245546 L1034.65513,69.7802657 L1072,70.3407971 L1069.39452,81.3669664 C1068.97395,83.1717321 1067.44876,84.5025322 1065.61045,84.6686288 L1065.61045,84.6686288 L1040.36229,87.2850383 L1040.73453,88.2194958 C1040.80601,88.5303457 1040.7844,88.8553848 1040.67255,89.1539533 L1040.67255,89.1539533 L1039.92818,91.0228683 C1039.53682,92.0103861 1039.65271,93.1278719 1040.23833,94.0130847 C1040.78108,94.9099826 1041.73716,95.4719449 1042.7817,95.5081928 L1042.7817,95.5081928 L1066.97535,95.5081928 C1067.66059,95.5081928 1068.21605,96.0659818 1068.21605,96.7540964 C1068.21605,97.442211 1067.66059,98 1066.97535,98 L1066.97535,98 L1042.78182,98 C1040.89851,97.9431241 1039.16161,96.9663376 1038.12918,95.3835905 C1037.13593,93.7519564 1036.9526,91.7500926 1037.63285,89.9639278 L1037.63285,89.9639278 L1038.19116,88.5311804 L1030.37473,64.6721683 C1029.93386,63.3915668 1028.746,62.5217356 1027.39701,62.4918072 L1027.39701,62.4918072 L1023.2407,62.4918072 C1022.55546,62.4918072 1022,61.9340182 1022,61.2459036 C1022,60.557789 1022.55546,60 1023.2407,60 L1023.2407,60 Z" id="Cart"></path>
        </g>
    </g>
</svg>