<svg width="500" height="500" viewBox="0 0 772 638" fill="none" xmlns="http://www.w3.org/2000/svg">
<rect width="500" height="500" fill="#E5E5E5"/>
<g clip-path="url(#clip0)">
<path d="M327.515 540.268C508.397 540.268 655.03 426.597 655.03 286.377C655.03 146.157 508.397 32.4857 327.515 32.4857C146.634 32.4857 0 146.157 0 286.377C0 426.597 146.634 540.268 327.515 540.268Z" fill="#F2F2F2"/>
<path d="M354.192 508.211C535.074 508.211 681.708 394.54 681.708 254.32C681.708 114.1 535.074 0.42865 354.192 0.42865C173.311 0.42865 26.6773 114.1 26.6773 254.32C26.6773 394.54 173.311 508.211 354.192 508.211Z" stroke="#3F3D56" stroke-miterlimit="10"/>
<path d="M133.469 144.998C143.672 143.113 154.186 144.982 163.217 150.289C167.892 153.058 172.308 157.087 173.656 162.522C175.004 167.957 172.015 174.74 166.698 175.565C158.858 176.781 154.821 163.955 160.111 157.789C165.4 151.623 174.692 151.568 182.331 153.777C196.251 157.801 207.944 167.398 220.214 175.357C280.88 214.705 357.251 214.577 428.278 206.836C435.567 206.041 443.343 204.962 448.859 199.923C454.375 194.883 455.861 184.422 449.871 180.013C443.991 175.685 434.864 180.87 433.494 188.246C432.124 195.621 436.869 203.104 443.158 206.75C449.448 210.396 456.929 210.954 464.122 210.869C494.807 210.503 524.809 199.852 551.537 184.105C560.563 178.788 569.947 171.976 572.739 161.552C575.53 151.129 567.017 137.615 557.007 140.42C550.473 142.251 546.872 149.83 546.349 156.875C545.994 162.511 546.883 168.157 548.948 173.378C552.47 182.526 558.877 190.064 564.686 197.836C596.289 240.468 612.024 293.619 608.974 347.441C607.639 369.537 600.195 395.075 580.125 402.203C571.934 405.112 562.957 404.307 554.479 402.503C547.415 400.999 539.073 397.08 538.782 389.557C538.578 384.266 542.926 379.731 547.763 378.146C560.033 374.127 573.298 386.913 573.125 400.343C572.951 413.772 562.353 425.291 550.126 429.451C537.899 433.611 524.507 431.696 512.154 427.964C471.953 415.817 438.43 385.537 398.1 373.869C350.665 360.146 299.557 373.973 255.344 396.564" stroke="#2F2E41" stroke-miterlimit="10"/>
<path d="M391.383 140.071H335.629V190.523H391.383V140.071Z" fill="#FF6584"/>
<path opacity="0.1" d="M391.433 140.233H335.679V190.685H391.433V140.233Z" fill="black"/>
<path d="M306.518 304.619L298.93 369.32C298.93 369.32 288.48 400.502 308.882 405.829C329.283 411.155 310.499 363.344 310.499 363.344L318.336 303.97L306.518 304.619Z" fill="#FFC1C7"/>
<path d="M324.929 247.064C324.929 247.064 320.202 308.257 319.58 308.257C319.106 308.257 315.171 308.559 310.411 308.817C308.918 308.898 307.345 308.974 305.772 309.037C299.179 309.296 304.528 299.552 304.901 298.903C305.274 298.253 303.533 292.277 300.671 287.34C297.81 282.403 301.667 285.781 304.528 281.883C307.389 277.985 304.777 279.804 301.169 276.686C297.562 273.568 303.284 272.529 306.269 271.229C309.255 269.93 306.145 269.54 302.786 267.332C299.427 265.123 302.289 255.119 302.786 234.851C303.08 225.034 305.449 215.406 309.724 206.658C310.709 204.581 311.842 202.583 313.111 200.682L320.451 200.032C320.451 200.032 323.809 214.064 324.058 215.623C324.307 217.182 324.929 247.064 324.929 247.064Z" fill="#2F2E41"/>
<path d="M344.086 140.268C344.086 140.268 347.694 172.489 342.967 175.477C338.24 178.465 336.249 187.689 336.249 187.689L353.914 197.304L384.018 191.197L382.898 175.347C382.898 175.347 368.468 174.178 371.454 166.512C373.348 161.506 374.805 156.331 375.808 151.051L344.086 140.268Z" fill="#FFC1C7"/>
<path opacity="0.1" d="M344.086 140.268C344.086 140.268 347.694 172.489 342.967 175.477C338.24 178.465 336.249 187.689 336.249 187.689L353.914 197.304L384.018 191.197L382.898 175.347C382.898 175.347 368.468 174.178 371.454 166.512C373.348 161.506 374.805 156.331 375.808 151.051L344.086 140.268Z" fill="black"/>
<path d="M364.115 471.829C362.138 478.234 363.244 508.378 363.827 521.348C364.012 525.48 364.011 529.613 363.822 533.749L362.497 562.904L362.53 563.788L364.115 606.818L349.187 604.999L348.067 581.483C348.067 581.483 346.681 575.855 344.726 567.384C339.409 544.359 329.88 500.34 332.517 491.317C336.125 478.975 327.168 432.982 327.168 432.982L358.517 427.136C358.517 427.136 366.811 463.091 364.115 471.829Z" fill="#FFC1C7"/>
<path d="M438.007 612.095L429.299 617.292C429.299 617.292 413.501 610.925 412.63 610.666C411.759 610.406 410.764 596.764 410.764 596.764C410.764 596.764 408.709 582.766 406.13 568.441C404.314 558.349 402.239 548.095 400.439 542.457C396.085 528.815 396.582 483.342 396.085 480.354C395.587 477.366 380.286 422.019 380.286 422.019C380.286 422.019 413.5 415.523 417.73 419.42C421.96 423.318 425.94 470.35 425.692 480.354C425.443 490.358 426.811 550.772 426.811 550.772C426.811 550.772 426.982 559.557 427.248 568.924C427.437 575.545 427.673 582.456 427.931 586.76C428.314 592.972 430.832 598.831 435.021 603.26L438.007 612.095Z" fill="#FFC1C7"/>
<path d="M424.199 610.016C424.199 610.016 415.615 598.193 435.643 599.102C435.643 599.102 437.509 601.181 441.117 606.248C444.724 611.315 468.236 630.414 456.418 634.052C444.6 637.689 429.39 639.732 424.785 636.07C418.068 637.787 411.09 638.079 404.264 636.928C404.264 636.928 405.663 613.394 406.783 610.666C407.903 607.937 409.147 594.165 409.147 594.165L422.706 612.225L424.199 610.016Z" fill="#2F2E41"/>
<path d="M365.11 159.237C379.194 159.237 390.611 147.312 390.611 132.603C390.611 117.893 379.194 105.968 365.11 105.968C351.025 105.968 339.608 117.893 339.608 132.603C339.608 147.312 351.025 159.237 365.11 159.237Z" fill="#FFC1C7"/>
<path opacity="0.1" d="M324.929 247.064C324.929 247.064 320.202 308.257 319.58 308.257C319.106 308.257 315.171 308.559 310.411 308.817C310.629 308.224 310.954 307.681 311.37 307.218C314.48 304.23 315.972 281.883 315.972 281.883L311.743 241.607L315.413 206.463C317.284 202.63 313.111 200.682 313.111 200.682L320.451 200.032C320.451 200.032 323.809 214.064 324.058 215.623C324.307 217.182 324.929 247.064 324.929 247.064Z" fill="black"/>
<path d="M405.788 181.713C405.788 181.713 382.152 171.579 380.411 172.489C378.669 173.398 373.942 177.036 373.942 177.036C373.942 177.036 362.87 189.119 347.943 185.611C347.943 185.611 342.842 183.012 342.967 175.477C342.967 175.477 327.417 184.182 322.566 189.898C317.714 195.615 313.111 200.682 313.111 200.682L315.475 241.607L319.704 281.883C319.704 281.883 318.212 304.23 315.102 307.218C311.992 310.206 308.011 336.06 312.614 378.155C317.216 420.25 307.762 434.152 313.236 437.919C318.709 441.687 360.507 439.219 384.64 440.388C408.773 441.557 423.825 434.541 422.581 432.722C421.338 430.904 415.864 365.683 419.969 347.234C424.074 328.785 420.964 290.068 420.964 290.068L405.788 181.713Z" fill="#2F2E41"/>
<path d="M398.946 298.383C398.946 298.383 392.477 351.131 387.999 355.938C383.521 360.746 381.903 398.943 389.741 398.943C397.578 398.943 404.668 356.718 404.668 356.718L416.61 299.552L398.946 298.383Z" fill="#FFC1C7"/>
<path d="M341.847 604.739C341.847 604.739 358.019 593.306 366.602 604.739C366.602 604.739 370.21 630.204 366.602 633.062C362.995 635.921 338.364 640.728 337.866 633.062C337.369 625.397 339.11 621.889 339.11 621.889L341.847 611.495L341.847 604.739Z" fill="#2F2E41"/>
<path opacity="0.1" d="M403.611 188.664L402.802 184.182C402.802 184.182 420.964 204.579 423.95 222.249C426.936 239.918 433.529 258.237 428.926 260.706C424.323 263.174 420.591 262.395 422.706 266.422C424.821 270.45 425.443 275.257 423.328 276.816C421.213 278.375 419.72 279.674 420.467 282.922C421.213 286.17 421.213 292.796 419.72 294.226C418.228 295.655 414.496 307.088 414.496 307.088C414.496 307.088 399.319 301.891 393.597 305.399C387.875 308.907 392.726 291.757 392.726 291.757C392.726 291.757 391.482 284.871 389.616 283.702C387.75 282.533 386.63 280.324 388.994 277.985C391.358 275.647 393.224 275.647 389.989 272.399C386.755 269.151 382.401 270.58 386.879 267.202C391.358 263.824 393.721 262.265 390.736 259.017C387.75 255.769 385.138 253.95 387.252 251.091C389.367 248.233 393.161 185.806 403.611 188.664Z" fill="black"/>
<path d="M401.558 182.493L405.788 181.713C405.788 181.713 423.95 202.111 426.936 219.78C429.921 237.45 436.514 255.769 431.911 258.237C427.309 260.706 423.577 259.926 425.692 263.954C427.806 267.981 428.428 272.788 426.314 274.347C424.199 275.907 422.706 277.206 423.452 280.454C424.199 283.702 424.199 290.328 422.706 291.757C421.213 293.186 417.481 304.619 417.481 304.619C417.481 304.619 402.305 299.422 396.582 302.93C390.86 306.438 395.712 289.289 395.712 289.289C395.712 289.289 394.468 282.403 392.602 281.233C390.736 280.064 389.616 277.855 391.98 275.517C394.343 273.178 396.209 273.178 392.975 269.93C389.741 266.682 385.387 268.111 389.865 264.733C394.343 261.355 396.707 259.796 393.721 256.548C390.736 253.3 388.123 251.481 390.238 248.623C392.353 245.765 391.109 179.634 401.558 182.493Z" fill="#2F2E41"/>
<path d="M343.639 101.996C340.922 104.167 338.626 106.859 336.873 109.928C336.014 111.681 335.297 113.506 334.727 115.383C332.708 121.452 327.689 127.599 329.813 133.628C330.42 135.349 331.365 137.163 330.821 138.906C330.339 140.454 328.849 141.357 327.772 142.534C325.46 145.06 325.071 148.85 324.93 152.341C324.671 158.735 328.037 166.27 332.105 171.056C332.988 171.957 333.806 172.924 334.553 173.95C335.056 174.769 335.385 175.691 335.517 176.654C335.65 177.617 335.582 178.598 335.319 179.531L341.245 178.24C341.458 180.524 341.525 182.821 341.445 185.115C342.849 185.277 344.265 184.927 345.452 184.126C346.639 183.325 347.525 182.121 347.962 180.716C348.297 182.352 348.845 183.933 349.589 185.414C351.328 183.144 352.661 180.565 353.525 177.802C354.659 174.263 354.902 170.478 354.232 166.813C353.604 164.135 352.75 161.521 351.68 159.001C349.587 153.475 347.877 147.8 346.169 142.131C345.282 139.187 344.385 136.147 344.653 133.073L346.759 132.834C346.782 131.62 347.007 130.419 347.423 129.285C348.657 129.558 349.844 130.024 350.944 130.669L353.371 124.237C354.973 125.972 357.272 126.757 359.474 127.481L367.84 130.233L367.891 128.503C371.423 131.768 375.445 134.404 379.797 136.303C379.551 135.993 379.372 135.632 379.271 135.244C379.169 134.856 379.148 134.449 379.209 134.052C381.271 137.91 380.446 142.716 379.174 146.929C377.901 151.142 376.213 155.432 376.726 159.817C377.109 163.097 378.718 166.234 378.42 169.524C378.273 171.144 377.666 172.685 377.477 174.3C377.027 178.152 378.967 181.821 380.839 185.173L384.479 179.952C385.704 177.958 387.259 176.208 389.071 174.783C391.007 173.442 393.407 172.84 395.094 171.172C398.107 168.195 397.724 163.123 396.745 158.914C396.224 156.677 395.594 154.407 395.785 152.114C396.11 148.225 398.697 145.007 400.154 141.413C401.193 138.792 401.643 135.958 401.47 133.127C401.298 130.296 400.506 127.544 399.157 125.083C397.349 121.843 394.617 119.235 392.913 115.935C391.217 112.65 390.57 108.741 388.246 105.905C387.111 104.615 385.791 103.517 384.334 102.65C377.729 98.5051 370.31 95.9773 362.635 95.2564C355.357 94.4617 349.216 97.1937 343.639 101.996Z" fill="#FF6584"/>
<path d="M658.476 531.05C660.963 531.994 663.625 532.322 666.254 532.008C668.882 531.694 671.405 530.747 673.624 529.241C675.842 527.735 677.695 525.711 679.037 523.33C680.379 520.948 681.172 518.274 681.356 515.517C681.539 512.76 681.107 509.997 680.093 507.445C679.079 504.892 677.512 502.621 675.514 500.809C673.516 498.997 671.143 497.695 668.581 497.004C666.019 496.314 663.339 496.255 660.751 496.831L661.179 506.014L657.019 498.144C652.936 500.148 649.781 503.762 648.249 508.194C647.705 509.746 647.374 511.371 647.266 513.02C647.004 516.89 647.956 520.743 649.979 523.996C652.002 527.25 654.985 529.726 658.476 531.05Z" fill="#6C63FF"/>
<path d="M679.06 637.562C677.592 629.752 683.955 622.828 690.241 618.328C696.527 613.827 703.871 609.405 706.016 601.768C709.098 590.791 699.917 580.738 692.771 572.07C687.469 565.636 682.917 558.569 679.208 551.017C677.721 547.988 676.355 544.823 675.964 541.444C675.4 536.578 676.897 531.737 678.405 527.096C683.428 511.635 688.798 496.304 694.516 481.102" stroke="#3F3D56" stroke-miterlimit="10"/>
<path d="M659.18 528.685C661.666 529.629 664.329 529.957 666.957 529.644C669.586 529.33 672.109 528.382 674.327 526.876C676.545 525.37 678.399 523.347 679.74 520.965C681.082 518.584 681.876 515.909 682.059 513.153C682.242 510.396 681.81 507.633 680.796 505.08C679.783 502.528 678.215 500.256 676.217 498.444C674.22 496.633 671.846 495.33 669.285 494.64C666.723 493.95 664.042 493.89 661.455 494.466L661.882 503.65L657.722 495.78C653.639 497.783 650.485 501.398 648.953 505.829C648.408 507.381 648.078 509.006 647.97 510.656C647.707 514.525 648.66 518.379 650.682 521.632C652.705 524.886 655.688 527.362 659.18 528.685V528.685Z" stroke="#3F3D56" stroke-miterlimit="10"/>
<path d="M676.972 477.931C677.948 475.119 679.586 472.608 681.735 470.631C683.884 468.654 686.475 467.273 689.269 466.616L690.675 475.347L693.283 466.178C696.904 466.234 700.414 467.49 703.307 469.765C706.199 472.041 708.324 475.217 709.376 478.837C710.427 482.456 710.35 486.33 709.155 489.901C707.961 493.471 705.711 496.552 702.73 498.7C699.75 500.848 696.193 501.951 692.573 501.85C688.953 501.748 685.457 500.448 682.591 498.137C679.725 495.826 677.636 492.623 676.626 488.991C675.616 485.359 675.737 481.486 676.972 477.931V477.931Z" fill="#6C63FF"/>
<path d="M677.911 474.778C678.886 471.966 680.524 469.456 682.673 467.479C684.822 465.501 687.413 464.121 690.207 463.464L691.613 472.194L694.221 463.025C697.842 463.081 701.352 464.338 704.245 466.613C707.137 468.888 709.262 472.065 710.314 475.684C711.365 479.303 711.288 483.178 710.093 486.748C708.899 490.318 706.649 493.4 703.668 495.548C700.688 497.695 697.131 498.798 693.511 498.697C689.891 498.596 686.395 497.296 683.529 494.985C680.663 492.673 678.574 489.471 677.564 485.839C676.554 482.207 676.675 478.333 677.91 474.778H677.911Z" stroke="#3F3D56" stroke-miterlimit="10"/>
<path d="M689.772 572.246C693.716 573.74 698.047 573.667 701.942 572.039C705.837 570.412 709.022 567.345 710.89 563.422C712.759 559.5 713.18 554.996 712.074 550.77C710.967 546.544 708.411 542.891 704.891 540.507L702.887 547.554L701.466 538.72C701.452 538.713 701.438 538.708 701.423 538.703C699.314 537.902 697.074 537.544 694.832 537.647C692.59 537.751 690.39 538.315 688.357 539.307C686.323 540.299 684.497 541.7 682.983 543.43C681.468 545.159 680.295 547.184 679.529 549.387C678.764 551.59 678.422 553.93 678.522 556.271C678.623 558.613 679.165 560.91 680.116 563.033C681.067 565.156 682.409 567.062 684.066 568.643C685.723 570.224 687.662 571.449 689.772 572.246H689.772Z" fill="#6C63FF"/>
<path d="M690.585 569.053C694.528 570.547 698.86 570.474 702.755 568.846C706.65 567.219 709.835 564.151 711.703 560.229C713.572 556.306 713.993 551.803 712.887 547.577C711.78 543.351 709.224 539.698 705.704 537.314L703.7 544.36L702.279 535.527C702.265 535.52 702.251 535.514 702.236 535.51C700.127 534.709 697.887 534.351 695.645 534.454C693.403 534.558 691.203 535.122 689.169 536.114C687.136 537.106 685.31 538.507 683.796 540.237C682.281 541.966 681.107 543.991 680.342 546.194C679.577 548.397 679.235 550.736 679.335 553.078C679.436 555.419 679.977 557.717 680.929 559.84C681.88 561.963 683.222 563.869 684.879 565.45C686.536 567.031 688.475 568.255 690.585 569.053V569.053Z" stroke="#3F3D56" stroke-miterlimit="10"/>
<path d="M671.987 601.877C672.665 605.906 674.649 609.57 677.606 612.253C680.564 614.936 684.314 616.475 688.229 616.613C692.144 616.75 695.985 615.478 699.109 613.009C702.232 610.54 704.448 607.024 705.384 603.051C706.32 599.079 705.92 594.891 704.25 591.19C702.58 587.489 699.743 584.5 696.214 582.724C692.685 580.949 688.679 580.495 684.867 581.438C681.055 582.381 677.67 584.665 675.279 587.905L682.89 599.87L672.49 593.519C671.684 596.223 671.511 599.089 671.987 601.877V601.877Z" fill="#6C63FF"/>
<path d="M672.691 599.512C673.369 603.542 675.353 607.205 678.31 609.888C681.267 612.571 685.018 614.111 688.933 614.248C692.848 614.386 696.689 613.114 699.812 610.644C702.936 608.175 705.151 604.66 706.087 600.687C707.023 596.714 706.623 592.526 704.954 588.825C703.284 585.124 700.447 582.135 696.918 580.36C693.389 578.584 689.382 578.13 685.571 579.073C681.759 580.017 678.374 582.3 675.983 585.541L683.594 597.506L673.194 591.155C672.388 593.858 672.215 596.725 672.691 599.512V599.512Z" stroke="#3F3D56" stroke-miterlimit="10"/>
<path d="M113.766 132.879C117.92 132.879 121.287 129.362 121.287 125.024C121.287 120.685 117.92 117.168 113.766 117.168C109.612 117.168 106.244 120.685 106.244 125.024C106.244 129.362 109.612 132.879 113.766 132.879Z" fill="#6C63FF"/>
<path d="M100.394 131.352C104.548 131.352 107.916 127.835 107.916 123.496C107.916 119.158 104.548 115.641 100.394 115.641C96.2405 115.641 92.8731 119.158 92.8731 123.496C92.8731 127.835 96.2405 131.352 100.394 131.352Z" fill="#6C63FF"/>
<path d="M89.1124 140.516C93.2663 140.516 96.6338 136.999 96.6338 132.661C96.6338 128.323 93.2663 124.806 89.1124 124.806C84.9584 124.806 81.591 128.323 81.591 132.661C81.591 136.999 84.9584 140.516 89.1124 140.516Z" fill="#6C63FF"/>
<path d="M90.366 154.481C94.5199 154.481 97.8874 150.964 97.8874 146.626C97.8874 142.288 94.5199 138.771 90.366 138.771C86.212 138.771 82.8445 142.288 82.8445 146.626C82.8445 150.964 86.212 154.481 90.366 154.481Z" fill="#6C63FF"/>
<path d="M129.748 153.81C128.784 152.88 127.369 152.652 126.157 152.438C124.922 152.345 123.756 151.806 122.858 150.914C122.371 150.519 121.977 150.012 121.705 149.434C121.434 148.855 121.293 148.219 121.293 147.575C121.293 146.931 121.434 146.295 121.705 145.717C121.977 145.138 122.371 144.632 122.858 144.237L127.281 140.136C128.872 138.743 130.151 137.003 131.028 135.038C131.906 133.073 132.36 130.932 132.36 128.764C132.36 126.596 131.906 124.454 131.028 122.489C130.151 120.525 128.872 118.785 127.281 117.392C122.289 112.803 115.59 110.532 108.627 110.532C100.094 110.558 91.86 113.813 85.4486 119.693C73.2609 130.944 73.2609 149.374 85.4486 160.624C91.506 166.219 99.6798 169.009 107.766 169.07H108.014C116.1 169.07 124.07 166.341 129.733 161.082C131.835 159.146 131.485 155.502 129.748 153.81L129.748 153.81ZM84.4853 133.703C84.4853 132.738 84.7592 131.795 85.2724 130.993C85.7857 130.191 86.5151 129.565 87.3686 129.196C88.2221 128.827 89.1612 128.73 90.0673 128.918C90.9733 129.107 91.8055 129.571 92.4588 130.254C93.112 130.936 93.5568 131.805 93.737 132.751C93.9173 133.698 93.8248 134.678 93.4712 135.57C93.1177 136.461 92.5191 137.223 91.751 137.759C90.9829 138.295 90.0798 138.581 89.156 138.581C88.5425 138.582 87.9348 138.456 87.3678 138.211C86.8008 137.966 86.2857 137.607 85.8518 137.154C85.418 136.701 85.074 136.163 84.8395 135.571C84.605 134.978 84.4846 134.344 84.4853 133.703V133.703ZM90.3237 152.911C89.3999 152.911 88.4969 152.625 87.7288 152.089C86.9607 151.553 86.362 150.791 86.0085 149.899C85.655 149.008 85.5625 148.027 85.7427 147.081C85.9229 146.135 86.3678 145.265 87.021 144.583C87.6742 143.901 88.5065 143.436 89.4125 143.248C90.3185 143.06 91.2577 143.156 92.1111 143.526C92.9646 143.895 93.6941 144.52 94.2073 145.322C94.7205 146.125 94.9945 147.068 94.9945 148.033C94.9951 148.673 94.8748 149.308 94.6403 149.9C94.4058 150.492 94.0618 151.03 93.6279 151.483C93.1941 151.937 92.6789 152.296 92.1119 152.541C91.5449 152.786 90.9373 152.911 90.3237 152.911V152.911ZM99.6652 128.367C98.7414 128.367 97.8384 128.081 97.0703 127.545C96.3022 127.009 95.7035 126.247 95.35 125.356C94.9965 124.465 94.904 123.484 95.0842 122.538C95.2644 121.591 95.7092 120.722 96.3625 120.04C97.0157 119.358 97.8479 118.893 98.754 118.705C99.66 118.517 100.599 118.613 101.453 118.982C102.306 119.352 103.036 119.977 103.549 120.779C104.062 121.581 104.336 122.524 104.336 123.489C104.337 124.13 104.216 124.765 103.982 125.357C103.747 125.949 103.403 126.487 102.969 126.94C102.536 127.393 102.02 127.753 101.453 127.998C100.886 128.242 100.279 128.368 99.6652 128.367V128.367ZM110.174 161.752C108.789 161.752 107.434 161.323 106.282 160.519C105.13 159.715 104.232 158.572 103.702 157.235C103.171 155.898 103.033 154.427 103.303 153.008C103.573 151.588 104.241 150.284 105.22 149.261C106.2 148.238 107.449 147.541 108.808 147.258C110.167 146.976 111.575 147.121 112.856 147.675C114.136 148.229 115.23 149.167 116 150.37C116.77 151.573 117.181 152.988 117.181 154.435C117.18 156.376 116.442 158.236 115.128 159.609C113.814 160.981 112.032 161.752 110.174 161.752L110.174 161.752ZM113.677 130.044C112.754 130.044 111.851 129.758 111.083 129.222C110.314 128.686 109.716 127.924 109.362 127.033C109.009 126.142 108.916 125.161 109.096 124.214C109.277 123.268 109.722 122.399 110.375 121.717C111.028 121.035 111.86 120.57 112.766 120.382C113.672 120.194 114.611 120.29 115.465 120.659C116.318 121.029 117.048 121.654 117.561 122.456C118.074 123.258 118.348 124.201 118.348 125.166C118.349 125.807 118.229 126.442 117.994 127.034C117.76 127.626 117.415 128.164 116.982 128.617C116.548 129.07 116.033 129.429 115.466 129.674C114.899 129.919 114.291 130.045 113.677 130.044H113.677Z" fill="#2F2E41"/>
<path d="M284.011 637.356H772" stroke="#2F2E41" stroke-miterlimit="10"/>
<path d="M217.914 395.996C217.914 395.996 212.939 399.869 210.072 401.74C207.205 403.612 204.629 410.094 206.037 416.036L206.365 415.93C206.365 415.93 206.75 412.982 211.526 410.867C216.303 408.752 223.329 405.719 220.436 397.812L217.914 395.996Z" fill="#6C63FF"/>
<path d="M219.618 392.337C219.618 392.337 238.647 354.544 255.834 332.968L263.237 321.814L264.099 322.287L257.551 334.199C257.551 334.199 229.133 390.096 222.515 394.503L219.618 392.337Z" fill="#2F2E41"/>
<path d="M223.337 394.236L219.584 391.314L216.928 396.316C217.346 396.963 217.919 397.485 218.591 397.828C219.262 398.172 220.008 398.325 220.754 398.274L223.337 394.236Z" fill="#3F3D56"/>
<path d="M207.878 422.946C207.878 424.367 207.51 425.518 207.057 425.518C206.604 425.518 206.236 424.367 206.236 422.946C206.268 422.025 206.553 421.132 207.057 420.375C207.561 421.132 207.846 422.025 207.878 422.946V422.946Z" fill="#6C63FF"/>
<path d="M203.774 431.519C204.227 431.519 204.594 430.368 204.594 428.948C204.594 427.527 204.227 426.376 203.774 426.376C203.32 426.376 202.953 427.527 202.953 428.948C202.953 430.368 203.32 431.519 203.774 431.519Z" fill="#6C63FF"/>
<path d="M557.078 127.518L589.048 121.383C589.048 121.383 592.418 120.679 592.996 123.093L556.211 134.155L555.441 128.825L557.078 127.518Z" fill="#6C63FF"/>
<path d="M558.457 127.253C547.076 127.441 549.23 131.49 547.882 134.206C546.533 136.921 535.512 137.2 535.512 137.2L535.509 137.201C533.9 137.235 532.335 137.76 531.007 138.711C529.68 139.661 528.647 140.997 528.037 142.553C527.427 144.109 527.266 145.817 527.573 147.467C527.881 149.118 528.644 150.638 529.768 151.841C530.892 153.045 532.329 153.878 533.901 154.24C535.473 154.601 537.112 154.474 538.617 153.875C540.121 153.276 541.424 152.231 542.367 150.868C543.309 149.505 543.85 147.884 543.922 146.204C543.957 145.388 543.878 144.57 543.689 143.777C542.705 136.087 557.371 134.323 557.371 134.323L556.837 131.591C556.714 130.783 556.8 129.955 557.084 129.193C557.369 128.431 557.843 127.761 558.457 127.253V127.253ZM535.748 151.303C534.606 151.303 533.489 150.949 532.538 150.286C531.588 149.623 530.848 148.68 530.41 147.578C529.973 146.475 529.859 145.262 530.082 144.091C530.305 142.921 530.855 141.846 531.663 141.002C532.471 140.158 533.5 139.583 534.621 139.35C535.742 139.117 536.904 139.237 537.959 139.694C539.015 140.15 539.918 140.924 540.552 141.916C541.187 142.908 541.526 144.075 541.526 145.269C541.526 146.061 541.377 146.846 541.086 147.578C540.796 148.31 540.37 148.975 539.834 149.535C539.297 150.096 538.66 150.54 537.959 150.844C537.258 151.147 536.507 151.303 535.748 151.303V151.303Z" fill="#2F2E41"/>
<path d="M558.102 134.336L590.527 136.717C590.527 136.717 593.951 137.025 594.268 134.559L556.036 127.565L556.335 133.226L558.102 134.336Z" fill="#6C63FF"/>
<path d="M557.428 130.316L557.668 127.538C557.668 127.538 542.906 127.489 543.063 119.733C543.167 118.923 543.158 118.101 543.036 117.294C542.813 115.579 542.11 113.972 541.015 112.673C539.921 111.374 538.484 110.44 536.884 109.99C535.285 109.54 533.593 109.593 532.022 110.142C530.451 110.691 529.07 111.712 528.052 113.078C527.034 114.443 526.424 116.091 526.299 117.817C526.174 119.542 526.539 121.268 527.349 122.777C528.158 124.287 529.376 125.514 530.85 126.304C532.324 127.094 533.989 127.412 535.635 127.219L535.638 127.219C535.638 127.219 546.621 126.216 548.25 128.758C549.879 131.3 548.17 135.574 559.5 134.438C558.836 134.005 558.294 133.394 557.93 132.67C557.566 131.945 557.393 131.133 557.428 130.316V130.316ZM540.756 118.502C540.883 119.688 540.67 120.887 540.145 121.947C539.62 123.007 538.805 123.88 537.805 124.457C536.804 125.033 535.663 125.287 534.524 125.186C533.385 125.085 532.301 124.633 531.408 123.889C530.515 123.144 529.854 122.139 529.508 121.002C529.161 119.865 529.146 118.646 529.463 117.499C529.78 116.352 530.416 115.33 531.289 114.56C532.163 113.791 533.235 113.31 534.371 113.177C535.894 112.999 537.422 113.46 538.619 114.458C539.817 115.457 540.585 116.912 540.756 118.502V118.502Z" fill="#2F2E41"/>
<path d="M192.184 314H185.434V262.812H192.184V314ZM210.605 314H204.102V260H210.605V314ZM228.113 314H221.609V260H228.113V314ZM262.039 310.238C259.508 313.215 255.793 314.703 250.895 314.703C246.84 314.703 243.746 313.531 241.613 311.188C239.504 308.82 238.438 305.328 238.414 300.711V275.961H244.918V300.535C244.918 306.301 247.262 309.184 251.949 309.184C256.918 309.184 260.223 307.332 261.863 303.629V275.961H268.367V314H262.18L262.039 310.238ZM300.43 303.91C300.43 302.152 299.762 300.793 298.426 299.832C297.113 298.848 294.805 298.004 291.5 297.301C288.219 296.598 285.605 295.754 283.66 294.77C281.738 293.785 280.309 292.613 279.371 291.254C278.457 289.895 278 288.277 278 286.402C278 283.285 279.312 280.648 281.938 278.492C284.586 276.336 287.961 275.258 292.062 275.258C296.375 275.258 299.867 276.371 302.539 278.598C305.234 280.824 306.582 283.672 306.582 287.141H300.043C300.043 285.359 299.281 283.824 297.758 282.535C296.258 281.246 294.359 280.602 292.062 280.602C289.695 280.602 287.844 281.117 286.508 282.148C285.172 283.18 284.504 284.527 284.504 286.191C284.504 287.762 285.125 288.945 286.367 289.742C287.609 290.539 289.848 291.301 293.082 292.027C296.34 292.754 298.977 293.621 300.992 294.629C303.008 295.637 304.496 296.855 305.457 298.285C306.441 299.691 306.934 301.414 306.934 303.453C306.934 306.852 305.574 309.582 302.855 311.645C300.137 313.684 296.609 314.703 292.273 314.703C289.227 314.703 286.531 314.164 284.188 313.086C281.844 312.008 280.004 310.508 278.668 308.586C277.355 306.641 276.699 304.543 276.699 302.293H283.203C283.32 304.473 284.188 306.207 285.805 307.496C287.445 308.762 289.602 309.395 292.273 309.395C294.734 309.395 296.703 308.902 298.18 307.918C299.68 306.91 300.43 305.574 300.43 303.91ZM324.23 266.75V275.961H331.332V280.988H324.23V304.578C324.23 306.102 324.547 307.25 325.18 308.023C325.812 308.773 326.891 309.148 328.414 309.148C329.164 309.148 330.195 309.008 331.508 308.727V314C329.797 314.469 328.133 314.703 326.516 314.703C323.609 314.703 321.418 313.824 319.941 312.066C318.465 310.309 317.727 307.812 317.727 304.578V280.988H310.801V275.961H317.727V266.75H324.23ZM357.348 281.797C356.363 281.633 355.297 281.551 354.148 281.551C349.883 281.551 346.988 283.367 345.465 287V314H338.961V275.961H345.289L345.395 280.355C347.527 276.957 350.551 275.258 354.465 275.258C355.73 275.258 356.691 275.422 357.348 275.75V281.797ZM385.438 314C385.062 313.25 384.758 311.914 384.523 309.992C381.5 313.133 377.891 314.703 373.695 314.703C369.945 314.703 366.863 313.648 364.449 311.539C362.059 309.406 360.863 306.711 360.863 303.453C360.863 299.492 362.363 296.422 365.363 294.242C368.387 292.039 372.629 290.938 378.09 290.938H384.418V287.949C384.418 285.676 383.738 283.871 382.379 282.535C381.02 281.176 379.016 280.496 376.367 280.496C374.047 280.496 372.102 281.082 370.531 282.254C368.961 283.426 368.176 284.844 368.176 286.508H361.637C361.637 284.609 362.305 282.781 363.641 281.023C365 279.242 366.828 277.836 369.125 276.805C371.445 275.773 373.988 275.258 376.754 275.258C381.137 275.258 384.57 276.359 387.055 278.562C389.539 280.742 390.828 283.754 390.922 287.598V305.105C390.922 308.598 391.367 311.375 392.258 313.438V314H385.438ZM374.645 309.043C376.684 309.043 378.617 308.516 380.445 307.461C382.273 306.406 383.598 305.035 384.418 303.348V295.543H379.32C371.352 295.543 367.367 297.875 367.367 302.539C367.367 304.578 368.047 306.172 369.406 307.32C370.766 308.469 372.512 309.043 374.645 309.043ZM409.941 266.75V275.961H417.043V280.988H409.941V304.578C409.941 306.102 410.258 307.25 410.891 308.023C411.523 308.773 412.602 309.148 414.125 309.148C414.875 309.148 415.906 309.008 417.219 308.727V314C415.508 314.469 413.844 314.703 412.227 314.703C409.32 314.703 407.129 313.824 405.652 312.066C404.176 310.309 403.438 307.812 403.438 304.578V280.988H396.512V275.961H403.438V266.75H409.941ZM431.738 314H425.234V275.961H431.738V314ZM424.707 265.871C424.707 264.816 425.023 263.926 425.656 263.199C426.312 262.473 427.273 262.109 428.539 262.109C429.805 262.109 430.766 262.473 431.422 263.199C432.078 263.926 432.406 264.816 432.406 265.871C432.406 266.926 432.078 267.805 431.422 268.508C430.766 269.211 429.805 269.562 428.539 269.562C427.273 269.562 426.312 269.211 425.656 268.508C425.023 267.805 424.707 266.926 424.707 265.871ZM440.457 294.629C440.457 290.902 441.184 287.551 442.637 284.574C444.113 281.598 446.152 279.301 448.754 277.684C451.379 276.066 454.367 275.258 457.719 275.258C462.898 275.258 467.082 277.051 470.27 280.637C473.48 284.223 475.086 288.992 475.086 294.945V295.402C475.086 299.105 474.371 302.434 472.941 305.387C471.535 308.316 469.508 310.602 466.859 312.242C464.234 313.883 461.211 314.703 457.789 314.703C452.633 314.703 448.449 312.91 445.238 309.324C442.051 305.738 440.457 300.992 440.457 295.086V294.629ZM446.996 295.402C446.996 299.621 447.969 303.008 449.914 305.562C451.883 308.117 454.508 309.395 457.789 309.395C461.094 309.395 463.719 308.105 465.664 305.527C467.609 302.926 468.582 299.293 468.582 294.629C468.582 290.457 467.586 287.082 465.594 284.504C463.625 281.902 461 280.602 457.719 280.602C454.508 280.602 451.918 281.879 449.949 284.434C447.98 286.988 446.996 290.645 446.996 295.402ZM489.395 275.961L489.605 280.742C492.512 277.086 496.309 275.258 500.996 275.258C509.035 275.258 513.09 279.793 513.16 288.863V314H506.656V288.828C506.633 286.086 506 284.059 504.758 282.746C503.539 281.434 501.629 280.777 499.027 280.777C496.918 280.777 495.066 281.34 493.473 282.465C491.879 283.59 490.637 285.066 489.746 286.895V314H483.242V275.961H489.395ZM545.117 303.91C545.117 302.152 544.449 300.793 543.113 299.832C541.801 298.848 539.492 298.004 536.188 297.301C532.906 296.598 530.293 295.754 528.348 294.77C526.426 293.785 524.996 292.613 524.059 291.254C523.145 289.895 522.688 288.277 522.688 286.402C522.688 283.285 524 280.648 526.625 278.492C529.273 276.336 532.648 275.258 536.75 275.258C541.062 275.258 544.555 276.371 547.227 278.598C549.922 280.824 551.27 283.672 551.27 287.141H544.73C544.73 285.359 543.969 283.824 542.445 282.535C540.945 281.246 539.047 280.602 536.75 280.602C534.383 280.602 532.531 281.117 531.195 282.148C529.859 283.18 529.191 284.527 529.191 286.191C529.191 287.762 529.812 288.945 531.055 289.742C532.297 290.539 534.535 291.301 537.77 292.027C541.027 292.754 543.664 293.621 545.68 294.629C547.695 295.637 549.184 296.855 550.145 298.285C551.129 299.691 551.621 301.414 551.621 303.453C551.621 306.852 550.262 309.582 547.543 311.645C544.824 313.684 541.297 314.703 536.961 314.703C533.914 314.703 531.219 314.164 528.875 313.086C526.531 312.008 524.691 310.508 523.355 308.586C522.043 306.641 521.387 304.543 521.387 302.293H527.891C528.008 304.473 528.875 306.207 530.492 307.496C532.133 308.762 534.289 309.395 536.961 309.395C539.422 309.395 541.391 308.902 542.867 307.918C544.367 306.91 545.117 305.574 545.117 303.91Z" fill="black" fill-opacity="0.33"/>
</g>
<defs>
<clipPath id="clip0">
<rect width="772" height="638" fill="white"/>
</clipPath>
</defs>
</svg>
