<?xml version="1.0" encoding="UTF-8"?>
<svg width="865px" height="800px" viewBox="0 0 865 1000" version="1.1" xmlns="http://www.w3.org/2000/svg" xmlns:xlink="http://www.w3.org/1999/xlink">
    <title>undraw_current_location_rypt</title>
    <g id="Homepage-" stroke="none" stroke-width="1" fill="none" fill-rule="evenodd">
        <g id="Homepage-Design-" transform="translate(-951.000000, 0.000000)" fill-rule="nonzero">
            <g id="undraw_current_location_rypt" transform="translate(951.000000, 0.000000)">
                <path d="M94.2250931,661.378711 L91.8035866,620.784396 C75.7789109,610.101682 59.1844689,600.273584 42.0202607,591.44254 L37.3196892,609.247065 L36.0377151,588.45138 C14.7427016,577.768666 0,572 0,572 C0,572 5.69766247,654.541774 37.6757931,722.911147 L86.5332488,741.427852 L46.2222868,739.6474 C50.4243129,747.267736 55.1248844,754.6032 60.2527806,761.582573 C112.17273,832.159707 177.339744,872.397932 205.828057,851.459812 C234.245148,830.521691 215.157979,756.383652 163.23803,685.806519 C147.142133,663.942563 125.348574,644.713677 102.914028,628.547169 L94.2250931,661.378711 Z" id="Path" fill="#E6E6E6"></path>
                <path d="M195.850606,637.279542 L214.755499,601.200175 C206.551489,583.730916 197.34873,566.760779 187.2899,550.361066 L174.092144,563.195624 L183.794278,544.728122 C171.095897,524.549345 161.393764,512 161.393764,512 C161.393764,512 123.512639,585.656099 115.522646,660.738261 L147.839312,701.880148 L114.167201,679.419672 C113.810505,688.11865 114.024523,696.817628 114.809254,705.516606 C122.799247,792.8629 157.826803,861.099964 193.068376,857.891325 C228.30995,854.682685 250.353769,781.240495 242.363776,693.894201 C239.866904,666.799024 231.163519,639.062119 220.319958,613.606914 L195.850606,637.279542 Z" id="Path" fill="#E6E6E6"></path>
                <ellipse id="Oval" fill="#E6E6E6" cx="751" cy="459" rx="114" ry="233"></ellipse>
                <path d="M737.568467,840 C783.324517,565.855365 737.996761,292.708657 737.568467,290 L733,290.784085 C733.428294,293.492742 778.613285,565.926646 733,839.287195 L737.568467,840 Z" id="Path" fill="#6C63FF"></path>
                <polygon id="Rectangle" fill="#6C63FF" transform="translate(699.767974, 440.400840) rotate(-61.856401) translate(-699.767974, -440.400840) " points="697.464128 381.872381 702.093466 381.871525 702.071821 498.9293 697.442482 498.930156"></polygon>
                <polygon id="Rectangle" fill="#6C63FF" transform="translate(808.655356, 468.078515) rotate(-28.156405) translate(-808.655356, -468.078515) " points="750.126529 465.774658 867.185038 465.753005 867.184182 470.382372 750.125673 470.404025"></polygon>
                <ellipse id="Oval" fill="#E6E6E6" cx="480" cy="318.5" rx="156" ry="318.5"></ellipse>
                <path d="M462.493342,840 C524.066167,465.175557 463.125218,91.7047845 462.493342,88 L458,88.7837044 C458.631876,92.4884889 519.432408,465.246802 458,839.287541 L462.493342,840 Z" id="Path" fill="#6C63FF"></path>
                <polygon id="Rectangle" fill="#6C63FF" transform="translate(410.777981, 293.382838) rotate(-61.856401) translate(-410.777981, -293.382838) " points="408.478118 213.315463 413.107456 213.314607 413.077845 373.450214 408.448506 373.451069"></polygon>
                <polygon id="Rectangle" fill="#6C63FF" transform="translate(559.771985, 331.228497) rotate(-28.156405) translate(-559.771985, -331.228497) " points="479.704108 328.928624 639.840718 328.899003 639.839862 333.52837 479.703252 333.557991"></polygon>
                <polygon id="Path" fill="#3F3D56" points="817.715081 843 127 843 127 840 818 840"></polygon>
                <path d="M632,842 L745,842 C744.43073,821.15493 728.633501,817 701.735516,817 L675.264484,817 C648.366499,817.070423 632.56927,821.15493 632,842 Z" id="Path" fill="#3F3D56"></path>
                <g id="Group" transform="translate(26.000000, 587.000000)">
                    <ellipse id="Oval" fill="#E6E6E6" cx="348.192619" cy="377.610172" rx="24.9166667" ry="7.12068966"></ellipse>
                    <ellipse id="Oval" fill="#E6E6E6" cx="76.9569048" cy="405.380862" rx="24.9166667" ry="7.12068966"></ellipse>
                    <ellipse id="Oval" fill="#E6E6E6" cx="24.9878571" cy="346.991207" rx="24.9166667" ry="7.12068966"></ellipse>
                    <ellipse id="Oval" fill="#E6E6E6" cx="127.14619" cy="328.050172" rx="18.8654762" ry="5.41172414"></ellipse>
                    <ellipse id="Oval" fill="#E6E6E6" cx="535.779524" cy="324.489828" rx="12.4583333" ry="3.84517241"></ellipse>
                    <ellipse id="Oval" fill="#E6E6E6" cx="584.900952" cy="367.926034" rx="12.4583333" ry="3.84517241"></ellipse>
                    <ellipse id="Oval" fill="#E6E6E6" cx="584.900952" cy="299.567414" rx="12.4583333" ry="3.84517241"></ellipse>
                    <path d="M49.0502381,311.245345 C47.4128571,309.963621 47.1280952,307.685 48.3383333,306.047241 L238.986429,56.6094828 L434.261905,59.3153448 L439.316429,66.6496552 L486.230952,134.011379 L575.575,262.255 C576.002143,262.895862 576.286905,263.607931 576.429286,264.32 C576.856429,267.025862 575.005476,269.518103 572.300238,269.945345 L513.639286,278.917414 L513.425714,279.059828 L468.219762,312.313448 L466.51119,313.595172 L482.95619,357.102586 L482.95619,357.102586 C483.098571,357.529828 483.169762,358.028276 482.95619,358.526724 C482.600238,359.666034 481.39,360.23569 480.250952,359.879655 L385.496429,328.263793 L344.561905,324.347414 L235.782857,313.951207 L172.138571,307.898621 L51.3995238,312.171034 C50.5452381,312.028621 49.6909524,311.815 49.0502381,311.245345 Z" id="Path" fill="#6C63FF"></path>
                    <polygon id="Path" fill="#000000" opacity="0.2" points="439.387619 66.5784483 439.45881 66.4360345 486.302143 133.940172 513.425714 278.917414 468.219762 312.171034 388.486429 69.6403448"></polygon>
                    <path d="M449.852619,120.482069 C457.39881,118.701897 463.805952,135.36431 472.847143,157.082414 C481.888333,178.800517 497.336667,194.679655 482.600238,199.16569 C471.850476,202.441207 468.646905,184.283448 459.605714,162.565345 C450.635714,140.847241 435.828095,123.828793 449.852619,120.482069 Z" id="Path" fill="#3F3D56"></path>
                    <path d="M447.716905,129.738966 L447.716905,130.023793 L448.642381,129.952586 C449.140714,130.023793 449.639048,130.023793 450.137381,130.023793 C451.49,130.023793 452.771429,129.810172 454.052857,129.311724 L464.589048,128.101207 C464.660238,128.101207 464.802619,128.101207 464.87381,128.101207 C465.799286,128.101207 466.724762,127.958793 467.650238,127.745172 L468.646905,127.602759 L468.646905,127.389138 C472.49119,125.965 475.196429,122.618276 475.765952,118.559483 C476.549048,112.578103 472.34881,107.023966 466.36881,106.24069 L466.36881,106.169483 L465.941667,106.24069 C465.585714,106.24069 465.229762,106.169483 464.945,106.169483 C463.663571,106.169483 462.453333,106.383103 461.243095,106.810345 L450.920476,108.092069 C450.706905,108.092069 450.422143,108.092069 450.208571,108.092069 C450.208571,108.092069 450.208571,108.092069 450.208571,108.092069 C444.157381,108.092069 439.245238,113.005345 439.245238,119.057931 C439.174048,124.184828 442.733571,128.670862 447.716905,129.738966 Z" id="Path" fill="#6C63FF"></path>
                    <path d="M447.716905,129.738966 L447.716905,130.023793 L448.642381,129.952586 C449.140714,130.023793 449.639048,130.023793 450.137381,130.023793 C451.49,130.023793 452.771429,129.810172 454.052857,129.311724 L464.589048,128.101207 C464.660238,128.101207 464.802619,128.101207 464.87381,128.101207 C465.799286,128.101207 466.724762,127.958793 467.650238,127.745172 L468.646905,127.602759 L468.646905,127.389138 C472.49119,125.965 475.196429,122.618276 475.765952,118.559483 C476.549048,112.578103 472.34881,107.023966 466.36881,106.24069 L466.36881,106.169483 L465.941667,106.24069 C465.585714,106.24069 465.229762,106.169483 464.945,106.169483 C463.663571,106.169483 462.453333,106.383103 461.243095,106.810345 L450.920476,108.092069 C450.706905,108.092069 450.422143,108.092069 450.208571,108.092069 C450.208571,108.092069 450.208571,108.092069 450.208571,108.092069 C444.157381,108.092069 439.245238,113.005345 439.245238,119.057931 C439.174048,124.184828 442.733571,128.670862 447.716905,129.738966 Z" id="Path" fill="#FFFFFF" opacity="0.2"></path>
                    <path d="M460.53119,73.7703448 L461.670238,72.987069 C462.595714,74.34 554.289048,206.357586 586.680714,268.093966 L585.399286,268.734828 C553.07881,206.998448 461.456667,75.1232759 460.53119,73.7703448 Z" id="Path" fill="#3F3D56"></path>
                    <path d="M396.24619,74.5536207 L397.527619,73.8415517 C420.593333,114.927931 486.942857,358.455517 487.654762,360.947759 L486.302143,361.303793 C485.519048,358.882759 419.169524,115.497586 396.24619,74.5536207 Z" id="Path" fill="#3F3D56"></path>
                    <path d="M41.5040476,313.381552 C76.9569048,254.991897 210.581429,74.34 211.934048,72.5598276 L213.073095,73.4143103 C211.720476,75.2656897 78.0959524,255.846379 42.7142857,314.164828 L41.5040476,313.381552 Z" id="Path" fill="#3F3D56"></path>
                    <ellipse id="Oval" fill="#3F3D56" transform="translate(488.768020, 361.364727) rotate(-89.907820) translate(-488.768020, -361.364727) " cx="488.76802" cy="361.364727" rx="6.40862898" ry="4.98333979"></ellipse>
                    <ellipse id="Oval" fill="#3F3D56" transform="translate(585.186505, 265.035742) rotate(-89.907820) translate(-585.186505, -265.035742) " cx="585.186505" cy="265.035742" rx="6.40862898" ry="4.98333979"></ellipse>
                    <ellipse id="Oval" fill="#3F3D56" transform="translate(41.399239, 310.857129) rotate(-89.907820) translate(-41.399239, -310.857129) " cx="41.3992391" cy="310.857129" rx="6.40862898" ry="4.98333979"></ellipse>
                    <path d="M467.009524,76.9746552 C463.52119,34.1081034 427.071667,0.427241379 384.072619,0.356034483 L281.202381,0.21362069 C235.355714,0.21362069 198.123095,37.0987931 197.695952,82.9560345 L467.223095,80.0365517 L467.009524,76.9746552 Z" id="Path" fill="#3F3D56"></path>
                    <path d="M221.402381,178.230862 L221.402381,277.422069 C221.402381,282.192931 225.104286,286.180517 229.945238,286.465345 L236.779524,286.892586 L236.779524,286.892586 L255.431429,288.031897 L258.065476,288.17431 L270.025476,288.886379 L303.840952,290.951379 L327.262619,292.375517 C327.47619,292.375517 327.760952,292.375517 327.974524,292.375517 C332.886667,292.30431 336.802143,288.316724 336.873333,283.403448 L337.015714,268.948448 L337.015714,266.527414 L337.015714,264.035172 L337.015714,262.539828 L337.87,185.422759 L337.94119,178.230862 C337.94119,178.159655 337.94119,178.159655 337.94119,178.088448 C337.94119,173.103966 333.883333,169.045172 328.9,169.045172 L230.443571,169.045172 C225.460238,169.187586 221.402381,173.246379 221.402381,178.230862 Z" id="Path" fill="#000000" opacity="0.2"></path>
                    <path d="M205.740476,168.546724 C205.740476,175.168966 207.73381,180.509483 210.154286,180.509483 C210.86619,180.438276 211.506905,180.082241 211.934048,179.512586 L345.772143,179.726207 C346.199286,180.509483 346.982381,181.007931 347.836667,181.079138 C350.257143,181.079138 352.321667,175.738621 352.321667,169.116379 C352.321667,162.494138 350.328333,157.153621 347.907857,157.153621 C347.338333,157.153621 346.84,157.438448 346.412857,157.86569 L339.43619,157.86569 L339.43619,154.875 C339.43619,154.803793 339.43619,154.803793 339.43619,154.732586 C339.43619,149.748103 335.378333,145.68931 330.395,145.68931 L231.867381,145.68931 C226.884048,145.68931 222.82619,149.748103 222.82619,154.732586 L222.82619,157.580862 L212.005238,157.580862 C211.578095,157.011207 210.937381,156.583966 210.225476,156.583966 C207.73381,156.583966 205.740476,161.924483 205.740476,168.546724 Z" id="Path" fill="#6C63FF"></path>
                    <path d="M205.740476,168.546724 C205.740476,175.168966 207.73381,180.509483 210.154286,180.509483 C210.86619,180.438276 211.506905,180.082241 211.934048,179.512586 L345.772143,179.726207 C346.199286,180.509483 346.982381,181.007931 347.836667,181.079138 C350.257143,181.079138 352.321667,175.738621 352.321667,169.116379 C352.321667,162.494138 350.328333,157.153621 347.907857,157.153621 C347.338333,157.153621 346.84,157.438448 346.412857,157.86569 L339.43619,157.86569 L339.43619,154.875 C339.43619,154.803793 339.43619,154.803793 339.43619,154.732586 C339.43619,149.748103 335.378333,145.68931 330.395,145.68931 L231.867381,145.68931 C226.884048,145.68931 222.82619,149.748103 222.82619,154.732586 L222.82619,157.580862 L212.005238,157.580862 C211.578095,157.011207 210.937381,156.583966 210.225476,156.583966 C207.73381,156.583966 205.740476,161.924483 205.740476,168.546724 Z" id="Path" fill="#FFFFFF" opacity="0.2"></path>
                    <path d="M220.263333,306.75931 C218.554762,304.053448 219.337857,300.493103 222.043095,298.784138 L233.504762,291.449828 L235.640476,296.078276 L230.30119,306.332069 C230.087619,306.830517 229.731667,307.257759 229.375714,307.613793 C227.16881,309.963621 223.538095,310.106034 221.18881,307.898621 L221.18881,307.898621 C220.832857,307.471379 220.548095,307.115345 220.263333,306.75931 Z" id="Path" fill="#FFB8B8"></path>
                    <path d="M193.495714,389.857759 C193.282143,390.641034 193.139762,391.495517 193.139762,392.35 C193.139762,397.548103 197.482381,401.179655 202.892857,401.179655 C208.303333,401.179655 212.645952,397.548103 212.645952,392.35 C212.645952,391.637931 212.574762,390.997069 212.432381,390.285 L207.662619,367.213966 L207.662619,367.213966 C207.093095,365.006552 205.170952,363.511207 202.892857,363.511207 C200.40119,363.511207 198.336667,365.362586 198.051905,367.783621 L193.495714,389.857759 Z" id="Path" fill="#3F3D56"></path>
                    <path d="M162.171905,388.291207 C165.090714,391.068276 170.287619,390.925862 172.708095,388.291207 C173.064048,387.935172 173.42,387.507931 173.775952,387.08069 L187.444524,369.065345 C188.37,367.641207 188.156429,365.789828 186.94619,364.57931 C185.593571,363.226379 183.671429,363.226379 181.962857,364.294483 L163.809286,376.96931 C163.239762,377.325345 162.741429,377.681379 162.243095,378.108621 C159.324286,380.387241 159.324286,385.442931 162.171905,388.291207 Z" id="Path" fill="#3F3D56"></path>
                    <path d="M144.231905,364.792931 C144.231905,367.57 147.649048,369.848621 150.140714,369.278966 L167.44,363.938448 C168.507857,363.653621 169.290952,362.656724 169.219762,361.517414 C169.148571,360.306897 168.151905,359.31 166.870476,359.381207 L148.503333,359.381207 C146.225238,359.381207 144.231905,361.232586 144.231905,364.792931 Z" id="Path" fill="#3F3D56"></path>
                    <path d="M237.562619,363.867241 L255.146667,369.207759 C257.638333,369.777414 260.984286,367.427586 260.984286,364.650517 C260.984286,361.873448 259.062143,359.381207 256.712857,359.381207 L238.345714,359.381207 C238.345714,359.381207 238.345714,359.381207 238.274524,359.381207 C236.993095,359.31 235.925238,360.23569 235.854048,361.517414 C235.782857,362.585517 236.494762,363.653621 237.562619,363.867241 Z" id="Path" fill="#3F3D56"></path>
                    <path d="M218.27,364.650517 C216.988571,365.789828 216.775,367.712414 217.771667,369.065345 L231.440238,386.938276 C231.725,387.365517 232.080952,387.792759 232.508095,388.148793 C235.426905,390.925862 240.054286,390.925862 243.044286,388.148793 C243.186667,388.006379 243.257857,387.935172 243.400238,387.792759 L243.400238,387.792759 C245.963095,385.01569 245.820714,380.672069 243.044286,378.108621 C242.545952,377.681379 242.047619,377.325345 241.478095,376.96931 L223.324524,364.36569 C221.758333,363.226379 219.622619,363.297586 218.27,364.650517 Z" id="Path" fill="#3F3D56"></path>
                    <path d="M199.689286,349.056207 C199.902857,350.053103 201.967381,350.907586 204.530238,350.907586 C206.737143,350.907586 208.730476,350.266724 209.3,349.341034 L209.3,349.341034 L214.069762,339.514483 C214.212143,339.229655 214.283333,338.944828 214.283333,338.66 C214.283333,336.452586 209.940714,334.886034 204.530238,334.886034 C199.119762,334.886034 194.777143,336.452586 194.777143,338.66 C194.777143,339.016034 194.919524,339.372069 195.133095,339.728103 L199.689286,349.056207 Z" id="Path" fill="#3F3D56"></path>
                    <path d="M163.809286,344.712586 C164.307619,344.926207 164.805952,345.068621 165.375476,345.211034 L183.529048,350.622759 C185.166429,351.121207 186.94619,351.05 188.512381,350.480345 C189.722619,349.981897 189.93619,349.198621 189.010714,348.557759 L175.342143,340.938621 C174.98619,340.725 174.630238,340.582586 174.274286,340.440172 C171.925,339.300862 166.656905,339.229655 163.738095,340.440172 C160.890476,341.579483 160.961667,343.71569 163.809286,344.712586 Z" id="Path" fill="#3F3D56"></path>
                    <path d="M150.140714,352.687759 L168.507857,352.687759 C169.718095,352.687759 170.857143,352.331724 170.857143,351.762069 C170.857143,351.263621 170.074048,350.907586 169.077381,350.765172 L151.778095,348.486552 C149.286429,348.201724 145.869286,349.198621 145.869286,350.409138 C145.798095,351.904483 147.791429,352.687759 150.140714,352.687759 Z" id="Path" fill="#3F3D56"></path>
                    <path d="M237.491429,351.762069 C237.491429,352.331724 238.701667,352.687759 239.983095,352.687759 L258.350238,352.687759 C260.628333,352.687759 262.621667,351.619655 262.621667,350.409138 C262.621667,349.198621 259.346905,348.201724 256.784048,348.486552 L239.2,350.765172 C238.060952,350.907586 237.491429,351.192414 237.491429,351.762069 Z" id="Path" fill="#3F3D56"></path>
                    <path d="M224.890714,350.551552 L243.044286,345.211034 C243.542619,345.068621 244.112143,344.926207 244.610476,344.712586 C247.386905,343.644483 247.529286,341.793103 244.966429,340.582586 C244.824048,340.511379 244.752857,340.511379 244.610476,340.440172 C241.193333,339.229655 237.491429,339.229655 234.074286,340.440172 C233.718333,340.582586 233.362381,340.725 233.006429,340.938621 L219.337857,348.557759 C218.412381,349.198621 218.554762,349.91069 219.83619,350.480345 C221.473571,350.978793 223.253333,351.05 224.890714,350.551552 Z" id="Path" fill="#3F3D56"></path>
                    <path d="M202.394524,264.462414 C191.28881,266.954655 220.548095,313.666379 237.63381,338.161552 C253.794048,361.375 221.829524,367.000345 202.394524,367.000345 C182.959524,367.000345 167.155238,366.501897 167.155238,338.161552 C167.155238,309.821207 202.394524,264.462414 202.394524,264.462414 Z" id="Path" fill="#F9A825"></path>
                    <path d="M203.960714,326.412414 C199.546905,327.40931 211.150952,345.851897 217.914048,355.607241 C224.32119,364.792931 211.649286,367.000345 203.960714,367.000345 C196.272143,367.000345 190.007381,366.786724 190.007381,355.607241 C190.007381,344.427759 203.960714,326.412414 203.960714,326.412414 Z" id="Path" fill="#FF6584" opacity="0.5"></path>
                    <path d="M278.212381,261.756552 L337.086905,262.682241 L336.873333,283.474655 C336.873333,283.617069 336.873333,283.759483 336.873333,283.901897 C336.588571,288.886379 332.245952,292.660345 327.262619,292.375517 L229.945238,286.465345 C225.175476,286.180517 221.402381,282.192931 221.402381,277.422069 L221.402381,272.366379 L278.212381,261.756552 Z" id="Path" fill="#3F3D56"></path>
                    <path d="M235.213333,296.932759 L232.223333,292.589138 C231.725,291.877069 231.867381,290.951379 232.508095,290.452931 L268.245714,260.830862 C268.530476,260.617241 268.672857,260.332414 268.744048,260.047586 L278.14119,226.22431 C278.14119,226.153103 278.212381,226.081897 278.212381,226.01069 C278.924286,223.94569 281.202381,222.877586 283.266905,223.589655 L285.545,224.372931 C290.03,225.939483 292.592857,230.639138 291.45381,235.267586 L281.914286,273.648103 C281.771905,274.075345 281.487143,274.502586 281.06,274.716207 L237.135476,297.502414 C236.565952,297.858448 235.640476,297.644828 235.213333,296.932759 Z" id="Path" fill="#E6E6E6"></path>
                    <path d="M272.944286,202.227586 C270.737381,198.809655 270.879762,195.462931 272.517143,192.116207 C273.798571,189.695172 275.720714,187.701379 278.07,186.348448 C280.632857,184.853103 282.412619,183.072931 283.195714,181.079138 C284.548333,177.661207 287.253571,174.955345 290.670714,173.673621 C294.657381,172.249483 299.07119,172.463103 302.915476,174.172069 L302.915476,174.172069 C307.258095,174.172069 311.458333,175.596207 314.946667,178.159655 C319.360476,181.506379 321.780952,186.846897 321.49619,192.329828 C321.140238,200.803448 326.479524,212.054138 333.669762,224.301724 C309.749762,220.955 287.467143,226.580345 266.18119,237.831034 C264.68619,223.874483 264.68619,210.914828 272.944286,202.227586 Z" id="Path" fill="#2F2E41"></path>
                    <ellipse id="Oval" fill="#FFB8B8" cx="296.365952" cy="194.750862" rx="14.95" ry="14.9534483"></ellipse>
                    <path d="M289.246905,202.227586 L306.617381,202.227586 C305.335952,209.277069 305.691905,218.676379 306.617381,228.858966 L289.246905,227.078793 C292.308095,221.524655 292.592857,213.478276 289.246905,202.227586 Z" id="Path" fill="#FFB8B8"></path>
                    <path d="M279.920952,226.722759 C279.351429,224.728966 280.348095,222.592759 282.270238,221.738276 L291.382619,217.821897 L291.59619,218.035517 L296.01,222.806379 L305.620714,212.125345 C305.691905,212.054138 305.763095,212.054138 305.834286,211.982931 C309.109048,210.202759 312.739762,212.125345 316.441667,212.267759 C319.075714,212.410172 321.282619,212.410172 322.350476,213.763103 C322.350476,213.763103 322.350476,213.763103 322.350476,213.763103 C322.350476,213.763103 322.350476,213.763103 322.350476,213.763103 C322.777619,214.403966 323.062381,215.116034 323.062381,215.89931 C323.275952,218.391552 323.560714,220.883793 323.845476,223.304828 C324.272619,226.793966 324.842143,230.211897 325.411667,233.487414 C327.689762,245.450172 331.249286,255.988793 336.944524,264.106379 L336.944524,266.598621 L336.944524,269.019655 L311.244762,282.833793 L300.56619,275.713103 L298.501667,274.360172 L298.145714,274.004138 L291.026667,266.527414 C290.10119,265.744138 289.246905,264.818448 288.46381,263.892759 C288.392619,263.821552 288.321429,263.679138 288.250238,263.607931 C288.250238,263.607931 288.250238,263.607931 288.250238,263.536724 C287.182381,262.183793 286.328095,260.830862 285.545,259.335517 C281.771905,252.072414 280.419286,242.245862 280.063333,231.351207 C279.992143,229.784655 279.992143,228.28931 279.920952,226.722759 L279.920952,226.722759 Z" id="Path" fill="#E6E6E6"></path>
                    <path d="M300.56619,275.713103 C300.850952,274.573793 301.278095,273.434483 301.847619,272.366379 C301.91881,272.223966 301.99,272.081552 302.06119,272.010345 C303.057857,270.230172 304.481667,268.663621 306.119048,267.453103 C308.966667,265.388103 312.52619,264.391207 316.014524,264.747241 C316.299286,264.747241 316.655238,264.818448 316.94,264.889655 L316.94,264.889655 C317.580714,264.960862 318.221429,265.174483 318.790952,265.316897 C319.289286,265.45931 319.716429,265.601724 320.214762,265.815345 L328.544048,270.301379 L337.086905,266.669828 L337.086905,269.090862 L336.944524,283.545862 C336.873333,288.459138 332.957857,292.375517 328.045714,292.517931 C327.832143,292.517931 327.547381,292.517931 327.33381,292.517931 L303.912143,291.093793 L301.278095,284.471552 C300.637381,282.762586 300.281429,280.982414 300.281429,279.202241 C300.210238,277.920517 300.352619,276.781207 300.56619,275.713103 Z" id="Path" fill="#2F2E41"></path>
                    <polygon id="Path" fill="#000000" opacity="0.2" points="301.491667 250.007414 284.833095 267.025862 303.769762 250.79069 306.830952 236.478103"></polygon>
                    <polygon id="Path" fill="#000000" opacity="0.2" points="317.509524 264.533621 301.847619 272.366379 318.577381 266.313793 324.272619 243.242759"></polygon>
                    <path d="M287.324762,177.874828 L311.458333,181.791207 L312.882143,194.608448 C301.847619,189.196724 289.460476,190.620862 278.425952,195.676552 L287.324762,177.874828 Z" id="Path" fill="#2F2E41"></path>
                    <polygon id="Path" fill="#3F3D56" points="190.078571 308.041034 269.883095 289.242414 270.879762 294.15569"></polygon>
                    <path d="M256.499286,296.078276 C254.790714,293.372414 255.57381,289.812069 258.279048,288.103103 L269.740714,280.768793 L271.876429,285.397241 L266.537143,295.651034 C266.323571,296.149483 265.967619,296.576724 265.611667,296.932759 C263.404762,299.282586 259.774048,299.425 257.424762,297.217586 L257.424762,297.217586 C257.06881,296.861552 256.784048,296.505517 256.499286,296.078276 Z" id="Path" fill="#FFB8B8"></path>
                    <path d="M271.449286,286.322931 L268.459286,281.97931 C267.960952,281.267241 268.103333,280.341552 268.744048,279.843103 L304.481667,250.221034 C304.766429,250.007414 304.90881,249.722586 304.98,249.437759 L314.377143,215.614483 C314.377143,215.543276 314.448333,215.472069 314.448333,215.400862 C315.160238,213.335862 317.438333,212.267759 319.502857,212.979828 L321.780952,213.763103 C326.265952,215.329655 328.82881,220.02931 327.689762,224.657759 L318.150238,263.038276 C318.007857,263.465517 317.723095,263.892759 317.295952,264.106379 L273.371429,286.892586 C272.801905,287.177414 271.876429,286.963793 271.449286,286.322931 Z" id="Path" fill="#E6E6E6"></path>
                    <path d="M210.510238,308.183448 L210.510238,308.183448 C211.293333,308.041034 211.862857,307.257759 211.649286,306.403276 L210.86619,302.344483 C210.72381,301.561207 209.940714,300.991552 209.086429,301.205172 L197.34,303.555 C196.556905,303.697414 195.987381,304.48069 196.200952,305.335172 L196.984048,309.393966 C197.126429,310.177241 197.909524,310.746897 198.76381,310.533276 L210.510238,308.183448 Z" id="Path" fill="#E6E6E6"></path>
                </g>
                <ellipse id="Oval" fill="#3F3D56" cx="610.5" cy="647" rx="58.5" ry="119"></ellipse>
                <path d="M605.561724,842 C628.940562,701.926835 605.775555,562.351646 605.561724,561 L601,561.782532 C601.213831,563.134177 624.236284,701.997975 601,841.288608 L605.561724,842 Z" id="Path" fill="#6C63FF"></path>
                <polygon id="Rectangle" fill="#6C63FF" transform="translate(584.556011, 637.872101) rotate(-61.856401) translate(-584.556011, -637.872101) " points="582.246872 607.967258 586.876211 607.966402 586.865151 667.776944 582.235812 667.7778"></polygon>
                <polygon id="Rectangle" fill="#6C63FF" transform="translate(640.132945, 651.998533) rotate(-28.159109) translate(-640.132945, -651.998533) " points="610.23055 649.689585 670.036195 649.678522 670.035339 654.307481 610.229694 654.318544"></polygon>
            </g>
        </g>
    </g>
</svg>